<svg xmlns="http://www.w3.org/2000/svg" width="300" height="43" viewBox="8 8 284 38" fill="none" shape-rendering="geometricPrecision">
  <g fill="#071B28">
    <path d="M10 10H18V36H41V44H10V10Z"/>
    <path d="M49 10H79V18H49V10Z"/>
    <path d="M49 24H77V31H57V36H79V44H49V24Z"/>
    <path fill-rule="evenodd" clip-rule="evenodd" d="M86 10H102C114 10 121 16.8 121 27C121 37.2 114 44 102 44H86V10ZM95 18V36H102C108.5 36 112 32.6 112 27C112 21.4 108.5 18 102 18H95Z"/>
    <path d="M145 10H161V18H145C137.7 18 133 21.5 133 27C133 32.5 137.7 36 145 36H153V31H145V24H161V44H145C132.3 44 124 37.3 124 27C124 16.7 132.3 10 145 10Z"/>
    <path d="M169 10H201V18H169V10Z"/>
    <path d="M169 24H199V31H177V36H201V44H169V24Z"/>
    <path fill-rule="evenodd" clip-rule="evenodd" d="M208 10H229C237.8 10 243 14.8 243 22C243 27.5 240 31.5 234.8 33.2L244 44H233L224.8 34H217V44H208V10ZM217 18V27H228C232 27 234 25.5 234 22.5C234 19.5 232 18 228 18H217Z"/>
    <path d="M248 44L263 10H270L258 44H248Z"/>
    <path d="M268 10H275L291 44H281L268 10Z"/>
  </g>
</svg>