<svg xmlns="http://www.w3.org/2000/svg" width="300" height="43" viewBox="31 28 1135 162" fill="none"><path d="M676 96L676 121L675 122L676 127L676 172L678 174L798 174L801 173L804 170L804 148L798 144L793 145L713 145L711 143L711 123L713 121L750 121L751 120L774 121L775 120L785 120L787 118L787 97L783 94L678 94ZM196 95L195 97L196 102L195 107L196 128L195 132L196 133L196 171L197 173L201 175L311 175L315 172L316 148L311 145L233 146L231 144L231 122L232 121L247 121L248 120L260 120L261 121L272 121L273 120L292 121L296 120L297 121L303 121L304 119L304 97L301 94L205 94L201 93ZM1051 42L1048 45L1045 52L1041 56L1042 62L1038 67L1038 74L1031 86L1030 91L1027 95L1026 99L1023 102L1022 106L1017 111L1014 117L1014 121L1011 128L1010 135L1007 141L1007 144L1005 146L1003 152L1000 156L999 161L997 163L994 176L996 177L1003 174L1009 174L1010 175L1031 174L1036 171L1039 166L1044 152L1052 137L1052 134L1056 128L1060 116L1063 112L1072 90L1076 84L1079 85L1082 91L1083 96L1088 107L1090 109L1091 114L1106 145L1107 150L1116 171L1121 174L1155 174L1157 172L1157 167L1153 161L1152 156L1149 152L1148 147L1145 143L1140 129L1133 117L1128 103L1121 91L1120 85L1117 82L1116 77L1113 73L1112 68L1109 64L1108 59L1105 55L1104 50L1102 48L1100 42L1097 39L1056 39ZM832 40L831 42L831 69L834 72L838 70L920 70L921 69L928 69L933 73L935 77L935 86L932 91L928 95L920 98L836 98L834 99L832 102L832 130L833 131L832 136L833 167L832 171L834 175L839 175L840 174L866 174L869 171L870 168L869 163L869 127L872 124L894 124L896 125L914 151L923 167L931 174L934 175L937 174L947 175L948 174L971 174L973 169L936 126L937 121L949 116L955 112L963 104L968 97L969 91L972 86L972 75L969 69L968 63L964 56L955 47L949 43L938 39L834 39ZM675 42L675 49L676 50L675 67L677 70L682 70L683 69L800 69L804 66L804 41L801 39L678 39ZM507 68L499 86L499 98L498 99L499 120L502 125L504 133L506 135L507 139L520 155L534 165L551 172L565 173L572 175L584 175L585 174L642 174L644 171L644 97L643 95L641 94L582 94L580 96L580 120L581 121L607 120L610 122L611 124L611 146L609 148L576 147L575 146L570 146L565 143L562 143L558 141L547 132L543 124L540 121L540 118L536 111L536 101L540 88L551 76L561 71L570 69L642 69L644 67L644 43L641 39L551 39L545 42L538 43L523 51ZM344 40L343 42L343 170L345 173L350 175L414 175L415 174L432 172L451 164L457 160L469 148L475 139L480 127L480 122L483 112L483 101L481 94L481 88L477 79L476 73L470 65L460 55L450 48L444 46L440 43L432 42L426 39L346 39ZM380 70L387 70L388 69L414 69L431 74L441 83L446 95L447 111L442 127L432 138L425 142L416 143L409 146L380 146L378 143L379 142L379 84L378 83L378 73ZM196 42L196 67L200 69L313 70L316 68L316 62L318 56L318 48L312 39L199 39ZM41 39L39 41L39 173L41 175L162 175L164 174L166 169L165 165L166 147L162 143L128 143L127 144L108 144L107 145L82 145L80 143L81 56L88 54L88 47L84 46L79 39Z" fill="#071B28" fill-rule="evenodd" clip-rule="evenodd" shape-rendering="geometricPrecision"/></svg>
