<svg viewBox="0 0 100 100" xmlns="http://www.w3.org/2000/svg">
  <rect width="100" height="100" rx="0" fill="#003087"/>
  <rect x="18" y="30" width="12" height="40" rx="2" fill="white"/>
  <path d="M34 30 H54 C62 30 68 36 68 44 C68 48 66 51 63 53 C67 55 70 59 70 64 C70 73 64 70 56 70 H34Z" fill="#003087"/>
  <path d="M46 30 H58 C64 30 68 34 68 40 C68 46 64 50 58 50 H46Z" fill="white"/>
  <path d="M46 52 H60 C66 52 70 56 70 62 C70 68 66 70 60 70 H46Z" fill="white"/>
  <rect x="74" y="30" width="12" height="40" rx="2" fill="white"/>
</svg>
