<svg xmlns="http://www.w3.org/2000/svg" viewBox="0 0 2400 1050" preserveAspectRatio="xMidYMid slice">
  <defs>
    <linearGradient id="bg" x1="0" y1="0" x2="1" y2="1">
      <stop offset="0" stop-color="#081426"/>
      <stop offset="0.45" stop-color="#061123"/>
      <stop offset="1" stop-color="#020713"/>
    </linearGradient>
    <linearGradient id="desk" x1="0" y1="0" x2="1" y2="0">
      <stop offset="0" stop-color="#1b2737"/>
      <stop offset="0.55" stop-color="#0d1727"/>
      <stop offset="1" stop-color="#040916"/>
    </linearGradient>
    <linearGradient id="warm" x1="0" y1="0" x2="1" y2="0">
      <stop offset="0" stop-color="#f2b45d" stop-opacity="0.76"/>
      <stop offset="1" stop-color="#ffd28a" stop-opacity="0.18"/>
    </linearGradient>
    <linearGradient id="screen" x1="0" y1="0" x2="1" y2="1">
      <stop offset="0" stop-color="#14335d" stop-opacity="0.82"/>
      <stop offset="1" stop-color="#061020" stop-opacity="0.96"/>
    </linearGradient>
    <radialGradient id="cityGlow" cx="44%" cy="48%" r="42%">
      <stop offset="0" stop-color="#6ebbea" stop-opacity="0.22"/>
      <stop offset="0.45" stop-color="#2d6aa4" stop-opacity="0.10"/>
      <stop offset="1" stop-color="#020713" stop-opacity="0"/>
    </radialGradient>
    <radialGradient id="safe" cx="56%" cy="48%" r="33%">
      <stop offset="0" stop-color="#020713" stop-opacity="0.48"/>
      <stop offset="0.7" stop-color="#020713" stop-opacity="0.18"/>
      <stop offset="1" stop-color="#020713" stop-opacity="0"/>
    </radialGradient>
    <filter id="soft" x="-20%" y="-20%" width="140%" height="140%">
      <feGaussianBlur stdDeviation="8"/>
    </filter>
    <filter id="shadow" x="-25%" y="-25%" width="150%" height="150%">
      <feDropShadow dx="0" dy="28" stdDeviation="28" flood-color="#000" flood-opacity="0.52"/>
    </filter>
    <pattern id="dots" width="20" height="20" patternUnits="userSpaceOnUse">
      <circle cx="2" cy="2" r="1.35" fill="#7dcbf2" opacity="0.24"/>
    </pattern>
  </defs>

  <rect width="2400" height="1050" fill="url(#bg)"/>
  <rect width="2400" height="1050" fill="url(#cityGlow)"/>

  <g opacity="0.74" filter="url(#soft)">
    <rect x="500" y="65" width="18" height="620" fill="#193458"/>
    <rect x="760" y="40" width="14" height="680" fill="#193458"/>
    <rect x="1050" y="25" width="18" height="700" fill="#132b4a"/>
    <rect x="1290" y="0" width="20" height="760" fill="#10233d"/>
  </g>

  <g opacity="0.42">
    <rect x="600" y="75" width="520" height="360" fill="url(#dots)"/>
    <polyline points="610,350 690,315 760,335 835,280 925,310 1020,250" fill="none" stroke="#7dcbf2" stroke-width="4" stroke-opacity="0.48"/>
    <g stroke-width="5" stroke-linecap="round">
      <line x1="655" y1="265" x2="655" y2="325" stroke="#e7eef8" stroke-opacity="0.45"/>
      <line x1="690" y1="220" x2="690" y2="300" stroke="#7dcbf2" stroke-opacity="0.55"/>
      <line x1="725" y1="250" x2="725" y2="330" stroke="#f2994a" stroke-opacity="0.42"/>
      <line x1="760" y1="190" x2="760" y2="285" stroke="#e7eef8" stroke-opacity="0.48"/>
      <line x1="795" y1="230" x2="795" y2="315" stroke="#7dcbf2" stroke-opacity="0.55"/>
    </g>
  </g>

  <g opacity="0.5" filter="url(#soft)">
    <rect x="410" y="450" width="34" height="190" fill="#80c8f2"/>
    <rect x="470" y="390" width="44" height="250" fill="#dce8f8"/>
    <rect x="545" y="335" width="58" height="305" fill="#4c92c8"/>
    <rect x="640" y="470" width="42" height="170" fill="#d8e7f6"/>
    <rect x="710" y="420" width="70" height="220" fill="#69b7e3"/>
    <rect x="820" y="300" width="76" height="340" fill="#b9d4ee"/>
    <rect x="930" y="500" width="48" height="140" fill="#75c2ed"/>
  </g>

  <g transform="translate(0 92)" opacity="0.93">
    <rect x="0" y="0" width="365" height="660" fill="#07101c"/>
    <rect x="44" y="66" width="300" height="9" rx="4" fill="url(#warm)"/>
    <rect x="44" y="246" width="300" height="9" rx="4" fill="url(#warm)"/>
    <rect x="44" y="426" width="300" height="9" rx="4" fill="url(#warm)"/>
    <g opacity="0.58">
      <rect x="78" y="96" width="70" height="130" rx="8" fill="#142136"/>
      <rect x="170" y="108" width="104" height="106" rx="10" fill="#101b2c"/>
      <circle cx="256" cy="180" r="34" fill="#234160"/>
      <rect x="78" y="286" width="56" height="112" rx="7" fill="#142136"/>
      <rect x="152" y="286" width="56" height="112" rx="7" fill="#142136"/>
      <rect x="226" y="286" width="56" height="112" rx="7" fill="#142136"/>
      <rect x="78" y="476" width="186" height="120" rx="12" fill="#0f1a2a"/>
    </g>
  </g>

  <g transform="translate(-30 635)" filter="url(#shadow)">
    <polygon points="0,220 1260,40 2220,175 2400,310 0,310" fill="url(#desk)"/>
    <polygon points="352,72 750,112 886,248 290,205" fill="#dce7f6" opacity="0.68"/>
    <polygon points="382,104 716,132 812,224 326,192" fill="#354d6f" opacity="0.22"/>
    <g opacity="0.48" stroke="#102745" stroke-width="4">
      <line x1="420" y1="150" x2="650" y2="170"/>
      <line x1="420" y1="182" x2="735" y2="207"/>
      <rect x="466" y="128" width="34" height="70" fill="#2b5f99" stroke="none"/>
      <rect x="518" y="110" width="34" height="92" fill="#7dcbf2" stroke="none" opacity="0.72"/>
      <rect x="570" y="144" width="34" height="64" fill="#2b5f99" stroke="none"/>
      <rect x="622" y="98" width="34" height="116" fill="#7dcbf2" stroke="none" opacity="0.62"/>
    </g>
    <rect x="270" y="215" width="320" height="48" rx="24" fill="#030712" opacity="0.92" transform="rotate(-15 430 239)"/>
    <polygon points="552,203 625,215 555,238" fill="#c7d5e8" opacity="0.82" transform="rotate(-15 588 220)"/>
    <polygon points="160,250 420,236 472,310 92,310" fill="#050914" opacity="0.94"/>
  </g>

  <g transform="translate(55 640)" filter="url(#shadow)" opacity="0.92">
    <polygon points="0,0 350,24 510,168 94,150" fill="#0b1524"/>
    <polygon points="36,22 342,42 445,135 96,122" fill="#1e334d" opacity="0.68"/>
    <line x1="96" y1="122" x2="445" y2="135" stroke="#7dcbf2" stroke-opacity="0.15" stroke-width="5"/>
  </g>

  <g transform="translate(1710 130) rotate(10 300 230)" opacity="0.50" filter="url(#shadow)">
    <rect x="0" y="0" width="640" height="430" rx="28" fill="url(#screen)" stroke="#7dcbf2" stroke-opacity="0.12"/>
    <rect x="52" y="54" width="536" height="246" rx="18" fill="#030712" stroke="#7dcbf2" stroke-opacity="0.10"/>
    <polyline points="85,242 160,205 222,224 290,162 360,188 470,116 550,150" fill="none" stroke="#7dcbf2" stroke-width="5" stroke-opacity="0.56"/>
    <g fill="#7dcbf2" opacity="0.34">
      <rect x="92" y="336" width="66" height="36" rx="8"/>
      <rect x="178" y="336" width="66" height="36" rx="8"/>
      <rect x="264" y="336" width="66" height="36" rx="8"/>
      <rect x="350" y="336" width="66" height="36" rx="8"/>
      <rect x="436" y="336" width="66" height="36" rx="8"/>
    </g>
  </g>

  <rect x="1020" y="0" width="1380" height="1050" fill="#020713" opacity="0.54"/>
  <rect width="2400" height="1050" fill="url(#safe)"/>
  <rect width="2400" height="1050" fill="#020713" opacity="0.12"/>
</svg>