<svg xmlns="http://www.w3.org/2000/svg" viewBox="0 0 2560 1200" preserveAspectRatio="xMidYMid slice">
  <defs>
    <linearGradient id="bg" x1="0" y1="0" x2="1" y2="1">
      <stop offset="0" stop-color="#101827"/>
      <stop offset="0.42" stop-color="#07101f"/>
      <stop offset="1" stop-color="#030712"/>
    </linearGradient>
    <radialGradient id="safe" cx="50%" cy="48%" r="46%">
      <stop offset="0" stop-color="#020713" stop-opacity="0.96"/>
      <stop offset="0.52" stop-color="#020713" stop-opacity="0.74"/>
      <stop offset="1" stop-color="#020713" stop-opacity="0"/>
    </radialGradient>
    <linearGradient id="paper" x1="0" y1="0" x2="1" y2="1">
      <stop offset="0" stop-color="#d7e4f5" stop-opacity="0.55"/>
      <stop offset="1" stop-color="#7790ad" stop-opacity="0.22"/>
    </linearGradient>
    <linearGradient id="device" x1="0" y1="0" x2="1" y2="1">
      <stop offset="0" stop-color="#31435e" stop-opacity="0.70"/>
      <stop offset="1" stop-color="#07101c" stop-opacity="0.85"/>
    </linearGradient>
    <linearGradient id="accent" x1="0" y1="0" x2="1" y2="0">
      <stop offset="0" stop-color="#7dcbf2" stop-opacity="0.75"/>
      <stop offset="1" stop-color="#2b5f99" stop-opacity="0.35"/>
    </linearGradient>
    <filter id="softShadow" x="-20%" y="-20%" width="140%" height="140%">
      <feDropShadow dx="0" dy="28" stdDeviation="28" flood-color="#000" flood-opacity="0.45"/>
    </filter>
    <filter id="subtleBlur">
      <feGaussianBlur stdDeviation="1.2"/>
    </filter>
  </defs>

  <rect width="2560" height="1200" fill="url(#bg)"/>

  <g opacity="0.82" filter="url(#softShadow)" transform="translate(-70 118) rotate(-10 430 520)">
    <rect x="65" y="165" width="850" height="980" rx="22" fill="url(#paper)" stroke="#c4d7ee" stroke-opacity="0.22"/>
    <text x="145" y="305" fill="#dbeafe" fill-opacity="0.58" font-family="Arial, sans-serif" font-size="58" font-weight="800" letter-spacing="2">INFORME TRIBUTARIO</text>
    <rect x="145" y="375" width="620" height="9" rx="4" fill="#9fb7d3" fill-opacity="0.35"/>
    <rect x="145" y="420" width="530" height="7" rx="4" fill="#9fb7d3" fill-opacity="0.25"/>
    <rect x="145" y="470" width="45" height="240" rx="7" fill="#7dcbf2" fill-opacity="0.34"/>
    <rect x="225" y="535" width="45" height="175" rx="7" fill="#7dcbf2" fill-opacity="0.40"/>
    <rect x="305" y="500" width="45" height="210" rx="7" fill="#7dcbf2" fill-opacity="0.48"/>
    <rect x="385" y="435" width="45" height="275" rx="7" fill="#7dcbf2" fill-opacity="0.58"/>
    <rect x="465" y="390" width="45" height="320" rx="7" fill="#7dcbf2" fill-opacity="0.68"/>
    <rect x="545" y="320" width="45" height="390" rx="7" fill="#7dcbf2" fill-opacity="0.54"/>
    <line x1="120" y1="735" x2="780" y2="735" stroke="#d8e7f8" stroke-opacity="0.28" stroke-width="6"/>
    <g fill="#8da6c4" fill-opacity="0.28">
      <rect x="145" y="800" width="520" height="6" rx="3"/>
      <rect x="145" y="845" width="610" height="6" rx="3"/>
      <rect x="145" y="890" width="560" height="6" rx="3"/>
      <rect x="145" y="935" width="635" height="6" rx="3"/>
      <rect x="145" y="980" width="480" height="6" rx="3"/>
    </g>
  </g>

  <g transform="translate(210 770) rotate(-27 275 70)" opacity="0.92" filter="url(#softShadow)">
    <rect x="0" y="40" width="710" height="42" rx="21" fill="#050914"/>
    <rect x="465" y="42" width="120" height="38" rx="18" fill="#cbd5e1" fill-opacity="0.58"/>
    <polygon points="700,42 815,62 700,82" fill="#d7e3f2" fill-opacity="0.76"/>
    <polygon points="815,62 760,50 760,74" fill="#0a0f1c"/>
  </g>

  <g opacity="0.72" filter="url(#softShadow)" transform="translate(1535 70) rotate(12 480 210)">
    <rect x="0" y="0" width="900" height="540" rx="26" fill="url(#device)" stroke="#9db8d4" stroke-opacity="0.18"/>
    <rect x="42" y="42" width="816" height="325" rx="16" fill="#030712" stroke="#88a4c1" stroke-opacity="0.12"/>
    <g fill="#a9bed7" fill-opacity="0.23">
      <rect x="70" y="400" width="88" height="48" rx="9"/><rect x="176" y="400" width="88" height="48" rx="9"/><rect x="282" y="400" width="88" height="48" rx="9"/><rect x="388" y="400" width="88" height="48" rx="9"/><rect x="494" y="400" width="88" height="48" rx="9"/><rect x="600" y="400" width="88" height="48" rx="9"/><rect x="706" y="400" width="88" height="48" rx="9"/>
      <rect x="96" y="465" width="88" height="48" rx="9"/><rect x="202" y="465" width="88" height="48" rx="9"/><rect x="308" y="465" width="88" height="48" rx="9"/><rect x="414" y="465" width="88" height="48" rx="9"/><rect x="520" y="465" width="88" height="48" rx="9"/><rect x="626" y="465" width="88" height="48" rx="9"/>
    </g>
  </g>

  <g opacity="0.9" filter="url(#softShadow)" transform="translate(1690 555) rotate(10 360 300)">
    <rect x="0" y="0" width="720" height="620" rx="36" fill="url(#device)" stroke="#9db8d4" stroke-opacity="0.18"/>
    <rect x="70" y="72" width="580" height="110" rx="18" fill="#06101c" stroke="#b4c7de" stroke-opacity="0.20"/>
    <text x="585" y="153" fill="#9fb7d3" fill-opacity="0.46" font-family="Arial, sans-serif" font-size="70" font-weight="700" text-anchor="end">0</text>
    <g fill="#9fb7d3" fill-opacity="0.26" stroke="#d5e5f7" stroke-opacity="0.10" stroke-width="2">
      <rect x="70" y="235" width="95" height="70" rx="14"/><rect x="190" y="235" width="95" height="70" rx="14"/><rect x="310" y="235" width="95" height="70" rx="14"/><rect x="430" y="235" width="95" height="70" rx="14"/><rect x="550" y="235" width="95" height="70" rx="14"/>
      <rect x="70" y="330" width="95" height="70" rx="14"/><rect x="190" y="330" width="95" height="70" rx="14"/><rect x="310" y="330" width="95" height="70" rx="14"/><rect x="430" y="330" width="95" height="70" rx="14"/><rect x="550" y="330" width="95" height="70" rx="14"/>
      <rect x="70" y="425" width="95" height="70" rx="14"/><rect x="190" y="425" width="95" height="70" rx="14"/><rect x="310" y="425" width="95" height="70" rx="14"/><rect x="430" y="425" width="95" height="70" rx="14"/><rect x="550" y="425" width="95" height="70" rx="14"/>
      <rect x="70" y="520" width="95" height="70" rx="14"/><rect x="190" y="520" width="95" height="70" rx="14"/><rect x="310" y="520" width="95" height="70" rx="14"/><rect x="430" y="520" width="95" height="70" rx="14"/><rect x="550" y="520" width="95" height="70" rx="14"/>
    </g>
  </g>

  <rect width="2560" height="1200" fill="url(#safe)"/>
  <rect width="2560" height="1200" fill="#020713" opacity="0.12"/>
  <rect width="2560" height="1200" fill="none" stroke="#7dcbf2" stroke-opacity="0.05" stroke-width="2"/>
</svg>
