<svg xmlns="http://www.w3.org/2000/svg" viewBox="0 0 220 80">
  <g transform="translate(8,6)">
    <path d="M32,0 C32,0 14,10 14,28 C14,38 20,45 32,48 C44,45 50,38 50,28 C50,10 32,0 32,0Z" fill="#CC0000"/>
    <path d="M32,12 C32,12 22,20 22,30 C22,36 26,40 32,42 C38,40 42,36 42,30 C42,20 32,12 32,12Z" fill="white"/>
    <path d="M32,22 C32,22 26,27 26,32 C26,35 28,37 32,38 C36,37 38,35 38,32 C38,27 32,22 32,22Z" fill="#CC0000"/>
  </g>
  <text x="72" y="36" font-family="Arial, sans-serif" font-size="22" font-weight="bold" fill="#CC0000">Santander</text>
  <text x="72" y="54" font-family="Arial, sans-serif" font-size="10" fill="#CC0000" letter-spacing="2">CHILE</text>
</svg>
